<?xml version="1.0" encoding="utf-8" standalone="no"?>
<!DOCTYPE svg PUBLIC "-//W3C//DTD SVG 1.1//EN"
  "http://www.w3.org/Graphics/SVG/1.1/DTD/svg11.dtd">
<svg xmlns:xlink="http://www.w3.org/1999/xlink" width="720pt" height="504pt" viewBox="0 0 720 504" xmlns="http://www.w3.org/2000/svg" version="1.1">
 <metadata>
  <rdf:RDF xmlns:dc="http://purl.org/dc/elements/1.1/" xmlns:cc="http://creativecommons.org/ns#" xmlns:rdf="http://www.w3.org/1999/02/22-rdf-syntax-ns#">
   <cc:Work>
    <dc:type rdf:resource="http://purl.org/dc/dcmitype/StillImage"/>
    <dc:date>2024-11-11T16:10:40.221429</dc:date>
    <dc:format>image/svg+xml</dc:format>
    <dc:creator>
     <cc:Agent>
      <dc:title>Matplotlib v3.6.3, https://matplotlib.org/</dc:title>
     </cc:Agent>
    </dc:creator>
   </cc:Work>
  </rdf:RDF>
 </metadata>
 <defs>
  <style type="text/css">*{stroke-linejoin: round; stroke-linecap: butt}</style>
 </defs>
 <g id="figure_1">
  <g id="patch_1">
   <path d="M 0 504 
L 720 504 
L 720 0 
L 0 0 
z
" style="fill: #ffffff"/>
  </g>
  <g id="axes_1">
   <g id="patch_2">
    <path d="M 90 448.56 
L 648 448.56 
L 648 60.48 
L 90 60.48 
z
" style="fill: #ffffff"/>
   </g>
   <g id="matplotlib.axis_1">
    <g id="xtick_1">
     <g id="line2d_1">
      <path d="M 115.312904 448.56 
L 115.312904 60.48 
" clip-path="url(#p925e71a150)" style="fill: none; stroke: #b0b0b0; stroke-width: 0.8; stroke-linecap: square"/>
     </g>
     <g id="line2d_2">
      <defs>
       <path id="m38a028c124" d="M 0 0 
L 0 3.5 
" style="stroke: #000000; stroke-width: 0.8"/>
      </defs>
      <g>
       <use xlink:href="#m38a028c124" x="115.312904" y="448.56" style="stroke: #000000; stroke-width: 0.8"/>
      </g>
     </g>
     <g id="text_1">
      <!-- 0 -->
      <g transform="translate(112.131654 463.158437) scale(0.1 -0.1)">
       <defs>
        <path id="DejaVuSans-30" d="M 2034 4250 
Q 1547 4250 1301 3770 
Q 1056 3291 1056 2328 
Q 1056 1369 1301 889 
Q 1547 409 2034 409 
Q 2525 409 2770 889 
Q 3016 1369 3016 2328 
Q 3016 3291 2770 3770 
Q 2525 4250 2034 4250 
z
M 2034 4750 
Q 2819 4750 3233 4129 
Q 3647 3509 3647 2328 
Q 3647 1150 3233 529 
Q 2819 -91 2034 -91 
Q 1250 -91 836 529 
Q 422 1150 422 2328 
Q 422 3509 836 4129 
Q 1250 4750 2034 4750 
z
" transform="scale(0.015625)"/>
       </defs>
       <use xlink:href="#DejaVuSans-30"/>
      </g>
     </g>
    </g>
    <g id="xtick_2">
     <g id="line2d_3">
      <path d="M 216.777596 448.56 
L 216.777596 60.48 
" clip-path="url(#p925e71a150)" style="fill: none; stroke: #b0b0b0; stroke-width: 0.8; stroke-linecap: square"/>
     </g>
     <g id="line2d_4">
      <g>
       <use xlink:href="#m38a028c124" x="216.777596" y="448.56" style="stroke: #000000; stroke-width: 0.8"/>
      </g>
     </g>
     <g id="text_2">
      <!-- 20000 -->
      <g transform="translate(200.871346 463.158437) scale(0.1 -0.1)">
       <defs>
        <path id="DejaVuSans-32" d="M 1228 531 
L 3431 531 
L 3431 0 
L 469 0 
L 469 531 
Q 828 903 1448 1529 
Q 2069 2156 2228 2338 
Q 2531 2678 2651 2914 
Q 2772 3150 2772 3378 
Q 2772 3750 2511 3984 
Q 2250 4219 1831 4219 
Q 1534 4219 1204 4116 
Q 875 4013 500 3803 
L 500 4441 
Q 881 4594 1212 4672 
Q 1544 4750 1819 4750 
Q 2544 4750 2975 4387 
Q 3406 4025 3406 3419 
Q 3406 3131 3298 2873 
Q 3191 2616 2906 2266 
Q 2828 2175 2409 1742 
Q 1991 1309 1228 531 
z
" transform="scale(0.015625)"/>
       </defs>
       <use xlink:href="#DejaVuSans-32"/>
       <use xlink:href="#DejaVuSans-30" x="63.623047"/>
       <use xlink:href="#DejaVuSans-30" x="127.246094"/>
       <use xlink:href="#DejaVuSans-30" x="190.869141"/>
       <use xlink:href="#DejaVuSans-30" x="254.492188"/>
      </g>
     </g>
    </g>
    <g id="xtick_3">
     <g id="line2d_5">
      <path d="M 318.242288 448.56 
L 318.242288 60.48 
" clip-path="url(#p925e71a150)" style="fill: none; stroke: #b0b0b0; stroke-width: 0.8; stroke-linecap: square"/>
     </g>
     <g id="line2d_6">
      <g>
       <use xlink:href="#m38a028c124" x="318.242288" y="448.56" style="stroke: #000000; stroke-width: 0.8"/>
      </g>
     </g>
     <g id="text_3">
      <!-- 40000 -->
      <g transform="translate(302.336038 463.158437) scale(0.1 -0.1)">
       <defs>
        <path id="DejaVuSans-34" d="M 2419 4116 
L 825 1625 
L 2419 1625 
L 2419 4116 
z
M 2253 4666 
L 3047 4666 
L 3047 1625 
L 3713 1625 
L 3713 1100 
L 3047 1100 
L 3047 0 
L 2419 0 
L 2419 1100 
L 313 1100 
L 313 1709 
L 2253 4666 
z
" transform="scale(0.015625)"/>
       </defs>
       <use xlink:href="#DejaVuSans-34"/>
       <use xlink:href="#DejaVuSans-30" x="63.623047"/>
       <use xlink:href="#DejaVuSans-30" x="127.246094"/>
       <use xlink:href="#DejaVuSans-30" x="190.869141"/>
       <use xlink:href="#DejaVuSans-30" x="254.492188"/>
      </g>
     </g>
    </g>
    <g id="xtick_4">
     <g id="line2d_7">
      <path d="M 419.70698 448.56 
L 419.70698 60.48 
" clip-path="url(#p925e71a150)" style="fill: none; stroke: #b0b0b0; stroke-width: 0.8; stroke-linecap: square"/>
     </g>
     <g id="line2d_8">
      <g>
       <use xlink:href="#m38a028c124" x="419.70698" y="448.56" style="stroke: #000000; stroke-width: 0.8"/>
      </g>
     </g>
     <g id="text_4">
      <!-- 60000 -->
      <g transform="translate(403.80073 463.158437) scale(0.1 -0.1)">
       <defs>
        <path id="DejaVuSans-36" d="M 2113 2584 
Q 1688 2584 1439 2293 
Q 1191 2003 1191 1497 
Q 1191 994 1439 701 
Q 1688 409 2113 409 
Q 2538 409 2786 701 
Q 3034 994 3034 1497 
Q 3034 2003 2786 2293 
Q 2538 2584 2113 2584 
z
M 3366 4563 
L 3366 3988 
Q 3128 4100 2886 4159 
Q 2644 4219 2406 4219 
Q 1781 4219 1451 3797 
Q 1122 3375 1075 2522 
Q 1259 2794 1537 2939 
Q 1816 3084 2150 3084 
Q 2853 3084 3261 2657 
Q 3669 2231 3669 1497 
Q 3669 778 3244 343 
Q 2819 -91 2113 -91 
Q 1303 -91 875 529 
Q 447 1150 447 2328 
Q 447 3434 972 4092 
Q 1497 4750 2381 4750 
Q 2619 4750 2861 4703 
Q 3103 4656 3366 4563 
z
" transform="scale(0.015625)"/>
       </defs>
       <use xlink:href="#DejaVuSans-36"/>
       <use xlink:href="#DejaVuSans-30" x="63.623047"/>
       <use xlink:href="#DejaVuSans-30" x="127.246094"/>
       <use xlink:href="#DejaVuSans-30" x="190.869141"/>
       <use xlink:href="#DejaVuSans-30" x="254.492188"/>
      </g>
     </g>
    </g>
    <g id="xtick_5">
     <g id="line2d_9">
      <path d="M 521.171672 448.56 
L 521.171672 60.48 
" clip-path="url(#p925e71a150)" style="fill: none; stroke: #b0b0b0; stroke-width: 0.8; stroke-linecap: square"/>
     </g>
     <g id="line2d_10">
      <g>
       <use xlink:href="#m38a028c124" x="521.171672" y="448.56" style="stroke: #000000; stroke-width: 0.8"/>
      </g>
     </g>
     <g id="text_5">
      <!-- 80000 -->
      <g transform="translate(505.265422 463.158437) scale(0.1 -0.1)">
       <defs>
        <path id="DejaVuSans-38" d="M 2034 2216 
Q 1584 2216 1326 1975 
Q 1069 1734 1069 1313 
Q 1069 891 1326 650 
Q 1584 409 2034 409 
Q 2484 409 2743 651 
Q 3003 894 3003 1313 
Q 3003 1734 2745 1975 
Q 2488 2216 2034 2216 
z
M 1403 2484 
Q 997 2584 770 2862 
Q 544 3141 544 3541 
Q 544 4100 942 4425 
Q 1341 4750 2034 4750 
Q 2731 4750 3128 4425 
Q 3525 4100 3525 3541 
Q 3525 3141 3298 2862 
Q 3072 2584 2669 2484 
Q 3125 2378 3379 2068 
Q 3634 1759 3634 1313 
Q 3634 634 3220 271 
Q 2806 -91 2034 -91 
Q 1263 -91 848 271 
Q 434 634 434 1313 
Q 434 1759 690 2068 
Q 947 2378 1403 2484 
z
M 1172 3481 
Q 1172 3119 1398 2916 
Q 1625 2713 2034 2713 
Q 2441 2713 2670 2916 
Q 2900 3119 2900 3481 
Q 2900 3844 2670 4047 
Q 2441 4250 2034 4250 
Q 1625 4250 1398 4047 
Q 1172 3844 1172 3481 
z
" transform="scale(0.015625)"/>
       </defs>
       <use xlink:href="#DejaVuSans-38"/>
       <use xlink:href="#DejaVuSans-30" x="63.623047"/>
       <use xlink:href="#DejaVuSans-30" x="127.246094"/>
       <use xlink:href="#DejaVuSans-30" x="190.869141"/>
       <use xlink:href="#DejaVuSans-30" x="254.492188"/>
      </g>
     </g>
    </g>
    <g id="xtick_6">
     <g id="line2d_11">
      <path d="M 622.636364 448.56 
L 622.636364 60.48 
" clip-path="url(#p925e71a150)" style="fill: none; stroke: #b0b0b0; stroke-width: 0.8; stroke-linecap: square"/>
     </g>
     <g id="line2d_12">
      <g>
       <use xlink:href="#m38a028c124" x="622.636364" y="448.56" style="stroke: #000000; stroke-width: 0.8"/>
      </g>
     </g>
     <g id="text_6">
      <!-- 100000 -->
      <g transform="translate(603.548864 463.158437) scale(0.1 -0.1)">
       <defs>
        <path id="DejaVuSans-31" d="M 794 531 
L 1825 531 
L 1825 4091 
L 703 3866 
L 703 4441 
L 1819 4666 
L 2450 4666 
L 2450 531 
L 3481 531 
L 3481 0 
L 794 0 
L 794 531 
z
" transform="scale(0.015625)"/>
       </defs>
       <use xlink:href="#DejaVuSans-31"/>
       <use xlink:href="#DejaVuSans-30" x="63.623047"/>
       <use xlink:href="#DejaVuSans-30" x="127.246094"/>
       <use xlink:href="#DejaVuSans-30" x="190.869141"/>
       <use xlink:href="#DejaVuSans-30" x="254.492188"/>
       <use xlink:href="#DejaVuSans-30" x="318.115234"/>
      </g>
     </g>
    </g>
    <g id="text_7">
     <!-- Размер стека -->
     <g transform="translate(333.828125 476.836563) scale(0.1 -0.1)">
      <defs>
       <path id="DejaVuSans-420" d="M 1259 4147 
L 1259 2394 
L 2053 2394 
Q 2494 2394 2734 2622 
Q 2975 2850 2975 3272 
Q 2975 3691 2734 3919 
Q 2494 4147 2053 4147 
L 1259 4147 
z
M 628 4666 
L 2053 4666 
Q 2838 4666 3239 4311 
Q 3641 3956 3641 3272 
Q 3641 2581 3239 2228 
Q 2838 1875 2053 1875 
L 1259 1875 
L 1259 0 
L 628 0 
L 628 4666 
z
" transform="scale(0.015625)"/>
       <path id="DejaVuSans-430" d="M 2194 1759 
Q 1497 1759 1228 1600 
Q 959 1441 959 1056 
Q 959 750 1161 570 
Q 1363 391 1709 391 
Q 2188 391 2477 730 
Q 2766 1069 2766 1631 
L 2766 1759 
L 2194 1759 
z
M 3341 1997 
L 3341 0 
L 2766 0 
L 2766 531 
Q 2569 213 2275 61 
Q 1981 -91 1556 -91 
Q 1019 -91 701 211 
Q 384 513 384 1019 
Q 384 1609 779 1909 
Q 1175 2209 1959 2209 
L 2766 2209 
L 2766 2266 
Q 2766 2663 2505 2880 
Q 2244 3097 1772 3097 
Q 1472 3097 1187 3025 
Q 903 2953 641 2809 
L 641 3341 
Q 956 3463 1253 3523 
Q 1550 3584 1831 3584 
Q 2591 3584 2966 3190 
Q 3341 2797 3341 1997 
z
" transform="scale(0.015625)"/>
       <path id="DejaVuSans-437" d="M 2206 1888 
Q 2594 1813 2809 1584 
Q 3025 1356 3025 1019 
Q 3025 478 2622 193 
Q 2219 -91 1475 -91 
Q 1225 -91 961 -47 
Q 697 -3 416 84 
L 416 619 
Q 638 503 903 445 
Q 1169 388 1459 388 
Q 1931 388 2195 563 
Q 2459 738 2459 1019 
Q 2459 1294 2225 1461 
Q 1991 1628 1563 1628 
L 1100 1628 
L 1100 2103 
L 1584 2103 
Q 1947 2103 2158 2242 
Q 2369 2381 2369 2600 
Q 2369 2800 2151 2944 
Q 1934 3088 1563 3088 
Q 1341 3088 1089 3047 
Q 838 3006 534 2916 
L 534 3438 
Q 841 3513 1106 3550 
Q 1372 3588 1609 3588 
Q 2222 3588 2576 3342 
Q 2931 3097 2931 2656 
Q 2931 2366 2743 2164 
Q 2556 1963 2206 1888 
z
" transform="scale(0.015625)"/>
       <path id="DejaVuSans-43c" d="M 581 3500 
L 1422 3500 
L 2416 1156 
L 3413 3500 
L 4247 3500 
L 4247 0 
L 3669 0 
L 3669 2950 
L 2703 672 
L 2128 672 
L 1159 2950 
L 1159 0 
L 581 0 
L 581 3500 
z
" transform="scale(0.015625)"/>
       <path id="DejaVuSans-435" d="M 3597 1894 
L 3597 1613 
L 953 1613 
Q 991 1019 1311 708 
Q 1631 397 2203 397 
Q 2534 397 2845 478 
Q 3156 559 3463 722 
L 3463 178 
Q 3153 47 2828 -22 
Q 2503 -91 2169 -91 
Q 1331 -91 842 396 
Q 353 884 353 1716 
Q 353 2575 817 3079 
Q 1281 3584 2069 3584 
Q 2775 3584 3186 3129 
Q 3597 2675 3597 1894 
z
M 3022 2063 
Q 3016 2534 2758 2815 
Q 2500 3097 2075 3097 
Q 1594 3097 1305 2825 
Q 1016 2553 972 2059 
L 3022 2063 
z
" transform="scale(0.015625)"/>
       <path id="DejaVuSans-440" d="M 1159 525 
L 1159 -1331 
L 581 -1331 
L 581 3500 
L 1159 3500 
L 1159 2969 
Q 1341 3281 1617 3432 
Q 1894 3584 2278 3584 
Q 2916 3584 3314 3078 
Q 3713 2572 3713 1747 
Q 3713 922 3314 415 
Q 2916 -91 2278 -91 
Q 1894 -91 1617 61 
Q 1341 213 1159 525 
z
M 3116 1747 
Q 3116 2381 2855 2742 
Q 2594 3103 2138 3103 
Q 1681 3103 1420 2742 
Q 1159 2381 1159 1747 
Q 1159 1113 1420 752 
Q 1681 391 2138 391 
Q 2594 391 2855 752 
Q 3116 1113 3116 1747 
z
" transform="scale(0.015625)"/>
       <path id="DejaVuSans-20" transform="scale(0.015625)"/>
       <path id="DejaVuSans-441" d="M 3122 3366 
L 3122 2828 
Q 2878 2963 2633 3030 
Q 2388 3097 2138 3097 
Q 1578 3097 1268 2742 
Q 959 2388 959 1747 
Q 959 1106 1268 751 
Q 1578 397 2138 397 
Q 2388 397 2633 464 
Q 2878 531 3122 666 
L 3122 134 
Q 2881 22 2623 -34 
Q 2366 -91 2075 -91 
Q 1284 -91 818 406 
Q 353 903 353 1747 
Q 353 2603 823 3093 
Q 1294 3584 2113 3584 
Q 2378 3584 2631 3529 
Q 2884 3475 3122 3366 
z
" transform="scale(0.015625)"/>
       <path id="DejaVuSans-442" d="M 188 3500 
L 3541 3500 
L 3541 3041 
L 2147 3041 
L 2147 0 
L 1581 0 
L 1581 3041 
L 188 3041 
L 188 3500 
z
" transform="scale(0.015625)"/>
       <path id="DejaVuSans-43a" d="M 581 3500 
L 1153 3500 
L 1153 1856 
L 2775 3500 
L 3481 3500 
L 2144 2147 
L 3653 0 
L 3009 0 
L 1769 1766 
L 1153 1141 
L 1153 0 
L 581 0 
L 581 3500 
z
" transform="scale(0.015625)"/>
      </defs>
      <use xlink:href="#DejaVuSans-420"/>
      <use xlink:href="#DejaVuSans-430" x="60.302734"/>
      <use xlink:href="#DejaVuSans-437" x="121.582031"/>
      <use xlink:href="#DejaVuSans-43c" x="174.755859"/>
      <use xlink:href="#DejaVuSans-435" x="250.195312"/>
      <use xlink:href="#DejaVuSans-440" x="311.71875"/>
      <use xlink:href="#DejaVuSans-20" x="375.195312"/>
      <use xlink:href="#DejaVuSans-441" x="406.982422"/>
      <use xlink:href="#DejaVuSans-442" x="461.962891"/>
      <use xlink:href="#DejaVuSans-435" x="520.214844"/>
      <use xlink:href="#DejaVuSans-43a" x="581.738281"/>
      <use xlink:href="#DejaVuSans-430" x="642.138672"/>
     </g>
    </g>
   </g>
   <g id="matplotlib.axis_2">
    <g id="ytick_1">
     <g id="line2d_13">
      <path d="M 90 430.957612 
L 648 430.957612 
" clip-path="url(#p925e71a150)" style="fill: none; stroke: #b0b0b0; stroke-width: 0.8; stroke-linecap: square"/>
     </g>
     <g id="line2d_14">
      <defs>
       <path id="m058208ee5d" d="M 0 0 
L -3.5 0 
" style="stroke: #000000; stroke-width: 0.8"/>
      </defs>
      <g>
       <use xlink:href="#m058208ee5d" x="90" y="430.957612" style="stroke: #000000; stroke-width: 0.8"/>
      </g>
     </g>
     <g id="text_8">
      <!-- 0.0 -->
      <g transform="translate(67.096875 434.756831) scale(0.1 -0.1)">
       <defs>
        <path id="DejaVuSans-2e" d="M 684 794 
L 1344 794 
L 1344 0 
L 684 0 
L 684 794 
z
" transform="scale(0.015625)"/>
       </defs>
       <use xlink:href="#DejaVuSans-30"/>
       <use xlink:href="#DejaVuSans-2e" x="63.623047"/>
       <use xlink:href="#DejaVuSans-30" x="95.410156"/>
      </g>
     </g>
    </g>
    <g id="ytick_2">
     <g id="line2d_15">
      <path d="M 90 371.536047 
L 648 371.536047 
" clip-path="url(#p925e71a150)" style="fill: none; stroke: #b0b0b0; stroke-width: 0.8; stroke-linecap: square"/>
     </g>
     <g id="line2d_16">
      <g>
       <use xlink:href="#m058208ee5d" x="90" y="371.536047" style="stroke: #000000; stroke-width: 0.8"/>
      </g>
     </g>
     <g id="text_9">
      <!-- 0.5 -->
      <g transform="translate(67.096875 375.335266) scale(0.1 -0.1)">
       <defs>
        <path id="DejaVuSans-35" d="M 691 4666 
L 3169 4666 
L 3169 4134 
L 1269 4134 
L 1269 2991 
Q 1406 3038 1543 3061 
Q 1681 3084 1819 3084 
Q 2600 3084 3056 2656 
Q 3513 2228 3513 1497 
Q 3513 744 3044 326 
Q 2575 -91 1722 -91 
Q 1428 -91 1123 -41 
Q 819 9 494 109 
L 494 744 
Q 775 591 1075 516 
Q 1375 441 1709 441 
Q 2250 441 2565 725 
Q 2881 1009 2881 1497 
Q 2881 1984 2565 2268 
Q 2250 2553 1709 2553 
Q 1456 2553 1204 2497 
Q 953 2441 691 2322 
L 691 4666 
z
" transform="scale(0.015625)"/>
       </defs>
       <use xlink:href="#DejaVuSans-30"/>
       <use xlink:href="#DejaVuSans-2e" x="63.623047"/>
       <use xlink:href="#DejaVuSans-35" x="95.410156"/>
      </g>
     </g>
    </g>
    <g id="ytick_3">
     <g id="line2d_17">
      <path d="M 90 312.114482 
L 648 312.114482 
" clip-path="url(#p925e71a150)" style="fill: none; stroke: #b0b0b0; stroke-width: 0.8; stroke-linecap: square"/>
     </g>
     <g id="line2d_18">
      <g>
       <use xlink:href="#m058208ee5d" x="90" y="312.114482" style="stroke: #000000; stroke-width: 0.8"/>
      </g>
     </g>
     <g id="text_10">
      <!-- 1.0 -->
      <g transform="translate(67.096875 315.913701) scale(0.1 -0.1)">
       <use xlink:href="#DejaVuSans-31"/>
       <use xlink:href="#DejaVuSans-2e" x="63.623047"/>
       <use xlink:href="#DejaVuSans-30" x="95.410156"/>
      </g>
     </g>
    </g>
    <g id="ytick_4">
     <g id="line2d_19">
      <path d="M 90 252.692917 
L 648 252.692917 
" clip-path="url(#p925e71a150)" style="fill: none; stroke: #b0b0b0; stroke-width: 0.8; stroke-linecap: square"/>
     </g>
     <g id="line2d_20">
      <g>
       <use xlink:href="#m058208ee5d" x="90" y="252.692917" style="stroke: #000000; stroke-width: 0.8"/>
      </g>
     </g>
     <g id="text_11">
      <!-- 1.5 -->
      <g transform="translate(67.096875 256.492136) scale(0.1 -0.1)">
       <use xlink:href="#DejaVuSans-31"/>
       <use xlink:href="#DejaVuSans-2e" x="63.623047"/>
       <use xlink:href="#DejaVuSans-35" x="95.410156"/>
      </g>
     </g>
    </g>
    <g id="ytick_5">
     <g id="line2d_21">
      <path d="M 90 193.271352 
L 648 193.271352 
" clip-path="url(#p925e71a150)" style="fill: none; stroke: #b0b0b0; stroke-width: 0.8; stroke-linecap: square"/>
     </g>
     <g id="line2d_22">
      <g>
       <use xlink:href="#m058208ee5d" x="90" y="193.271352" style="stroke: #000000; stroke-width: 0.8"/>
      </g>
     </g>
     <g id="text_12">
      <!-- 2.0 -->
      <g transform="translate(67.096875 197.070571) scale(0.1 -0.1)">
       <use xlink:href="#DejaVuSans-32"/>
       <use xlink:href="#DejaVuSans-2e" x="63.623047"/>
       <use xlink:href="#DejaVuSans-30" x="95.410156"/>
      </g>
     </g>
    </g>
    <g id="ytick_6">
     <g id="line2d_23">
      <path d="M 90 133.849787 
L 648 133.849787 
" clip-path="url(#p925e71a150)" style="fill: none; stroke: #b0b0b0; stroke-width: 0.8; stroke-linecap: square"/>
     </g>
     <g id="line2d_24">
      <g>
       <use xlink:href="#m058208ee5d" x="90" y="133.849787" style="stroke: #000000; stroke-width: 0.8"/>
      </g>
     </g>
     <g id="text_13">
      <!-- 2.5 -->
      <g transform="translate(67.096875 137.649006) scale(0.1 -0.1)">
       <use xlink:href="#DejaVuSans-32"/>
       <use xlink:href="#DejaVuSans-2e" x="63.623047"/>
       <use xlink:href="#DejaVuSans-35" x="95.410156"/>
      </g>
     </g>
    </g>
    <g id="ytick_7">
     <g id="line2d_25">
      <path d="M 90 74.428222 
L 648 74.428222 
" clip-path="url(#p925e71a150)" style="fill: none; stroke: #b0b0b0; stroke-width: 0.8; stroke-linecap: square"/>
     </g>
     <g id="line2d_26">
      <g>
       <use xlink:href="#m058208ee5d" x="90" y="74.428222" style="stroke: #000000; stroke-width: 0.8"/>
      </g>
     </g>
     <g id="text_14">
      <!-- 3.0 -->
      <g transform="translate(67.096875 78.227441) scale(0.1 -0.1)">
       <defs>
        <path id="DejaVuSans-33" d="M 2597 2516 
Q 3050 2419 3304 2112 
Q 3559 1806 3559 1356 
Q 3559 666 3084 287 
Q 2609 -91 1734 -91 
Q 1441 -91 1130 -33 
Q 819 25 488 141 
L 488 750 
Q 750 597 1062 519 
Q 1375 441 1716 441 
Q 2309 441 2620 675 
Q 2931 909 2931 1356 
Q 2931 1769 2642 2001 
Q 2353 2234 1838 2234 
L 1294 2234 
L 1294 2753 
L 1863 2753 
Q 2328 2753 2575 2939 
Q 2822 3125 2822 3475 
Q 2822 3834 2567 4026 
Q 2313 4219 1838 4219 
Q 1578 4219 1281 4162 
Q 984 4106 628 3988 
L 628 4550 
Q 988 4650 1302 4700 
Q 1616 4750 1894 4750 
Q 2613 4750 3031 4423 
Q 3450 4097 3450 3541 
Q 3450 3153 3228 2886 
Q 3006 2619 2597 2516 
z
" transform="scale(0.015625)"/>
       </defs>
       <use xlink:href="#DejaVuSans-33"/>
       <use xlink:href="#DejaVuSans-2e" x="63.623047"/>
       <use xlink:href="#DejaVuSans-30" x="95.410156"/>
      </g>
     </g>
    </g>
    <g id="text_15">
     <!-- Скорость (наносекунды) -->
     <g transform="translate(61.017187 319.56375) rotate(-90) scale(0.1 -0.1)">
      <defs>
       <path id="DejaVuSans-421" d="M 4122 4306 
L 4122 3641 
Q 3803 3938 3442 4084 
Q 3081 4231 2675 4231 
Q 1875 4231 1450 3742 
Q 1025 3253 1025 2328 
Q 1025 1406 1450 917 
Q 1875 428 2675 428 
Q 3081 428 3442 575 
Q 3803 722 4122 1019 
L 4122 359 
Q 3791 134 3420 21 
Q 3050 -91 2638 -91 
Q 1578 -91 968 557 
Q 359 1206 359 2328 
Q 359 3453 968 4101 
Q 1578 4750 2638 4750 
Q 3056 4750 3426 4639 
Q 3797 4528 4122 4306 
z
" transform="scale(0.015625)"/>
       <path id="DejaVuSans-43e" d="M 1959 3097 
Q 1497 3097 1228 2736 
Q 959 2375 959 1747 
Q 959 1119 1226 758 
Q 1494 397 1959 397 
Q 2419 397 2687 759 
Q 2956 1122 2956 1747 
Q 2956 2369 2687 2733 
Q 2419 3097 1959 3097 
z
M 1959 3584 
Q 2709 3584 3137 3096 
Q 3566 2609 3566 1747 
Q 3566 888 3137 398 
Q 2709 -91 1959 -91 
Q 1206 -91 779 398 
Q 353 888 353 1747 
Q 353 2609 779 3096 
Q 1206 3584 1959 3584 
z
" transform="scale(0.015625)"/>
       <path id="DejaVuSans-44c" d="M 2781 1038 
Q 2781 1319 2576 1466 
Q 2372 1613 1978 1613 
L 1159 1613 
L 1159 459 
L 1978 459 
Q 2372 459 2576 607 
Q 2781 756 2781 1038 
z
M 581 3500 
L 1159 3500 
L 1159 2072 
L 2003 2072 
Q 2672 2072 3033 1817 
Q 3394 1563 3394 1038 
Q 3394 513 3033 256 
Q 2672 0 2003 0 
L 581 0 
L 581 3500 
z
" transform="scale(0.015625)"/>
       <path id="DejaVuSans-28" d="M 1984 4856 
Q 1566 4138 1362 3434 
Q 1159 2731 1159 2009 
Q 1159 1288 1364 580 
Q 1569 -128 1984 -844 
L 1484 -844 
Q 1016 -109 783 600 
Q 550 1309 550 2009 
Q 550 2706 781 3412 
Q 1013 4119 1484 4856 
L 1984 4856 
z
" transform="scale(0.015625)"/>
       <path id="DejaVuSans-43d" d="M 581 3500 
L 1159 3500 
L 1159 2072 
L 3025 2072 
L 3025 3500 
L 3603 3500 
L 3603 0 
L 3025 0 
L 3025 1613 
L 1159 1613 
L 1159 0 
L 581 0 
L 581 3500 
z
" transform="scale(0.015625)"/>
       <path id="DejaVuSans-443" d="M 2059 -325 
Q 1816 -950 1584 -1140 
Q 1353 -1331 966 -1331 
L 506 -1331 
L 506 -850 
L 844 -850 
Q 1081 -850 1212 -737 
Q 1344 -625 1503 -206 
L 1606 56 
L 191 3500 
L 800 3500 
L 1894 763 
L 2988 3500 
L 3597 3500 
L 2059 -325 
z
" transform="scale(0.015625)"/>
       <path id="DejaVuSans-434" d="M 1384 459 
L 3053 459 
L 3053 3041 
L 1844 3041 
L 1844 2603 
Q 1844 1316 1475 628 
L 1384 459 
z
M 550 459 
Q 834 584 959 850 
Q 1266 1509 1266 2838 
L 1266 3500 
L 3631 3500 
L 3631 459 
L 4091 459 
L 4091 -884 
L 3631 -884 
L 3631 0 
L 794 0 
L 794 -884 
L 334 -884 
L 334 459 
L 550 459 
z
" transform="scale(0.015625)"/>
       <path id="DejaVuSans-44b" d="M 3909 3500 
L 4484 3500 
L 4484 0 
L 3909 0 
L 3909 3500 
z
M 4197 3584 
L 4197 3584 
z
M 2781 1038 
Q 2781 1319 2576 1466 
Q 2372 1613 1978 1613 
L 1159 1613 
L 1159 459 
L 1978 459 
Q 2372 459 2576 607 
Q 2781 756 2781 1038 
z
M 581 3500 
L 1159 3500 
L 1159 2072 
L 2003 2072 
Q 2672 2072 3033 1817 
Q 3394 1563 3394 1038 
Q 3394 513 3033 256 
Q 2672 0 2003 0 
L 581 0 
L 581 3500 
z
" transform="scale(0.015625)"/>
       <path id="DejaVuSans-29" d="M 513 4856 
L 1013 4856 
Q 1481 4119 1714 3412 
Q 1947 2706 1947 2009 
Q 1947 1309 1714 600 
Q 1481 -109 1013 -844 
L 513 -844 
Q 928 -128 1133 580 
Q 1338 1288 1338 2009 
Q 1338 2731 1133 3434 
Q 928 4138 513 4856 
z
" transform="scale(0.015625)"/>
      </defs>
      <use xlink:href="#DejaVuSans-421"/>
      <use xlink:href="#DejaVuSans-43a" x="69.824219"/>
      <use xlink:href="#DejaVuSans-43e" x="130.224609"/>
      <use xlink:href="#DejaVuSans-440" x="191.40625"/>
      <use xlink:href="#DejaVuSans-43e" x="254.882812"/>
      <use xlink:href="#DejaVuSans-441" x="316.064453"/>
      <use xlink:href="#DejaVuSans-442" x="371.044922"/>
      <use xlink:href="#DejaVuSans-44c" x="429.296875"/>
      <use xlink:href="#DejaVuSans-20" x="488.232422"/>
      <use xlink:href="#DejaVuSans-28" x="520.019531"/>
      <use xlink:href="#DejaVuSans-43d" x="559.033203"/>
      <use xlink:href="#DejaVuSans-430" x="624.414062"/>
      <use xlink:href="#DejaVuSans-43d" x="685.693359"/>
      <use xlink:href="#DejaVuSans-43e" x="751.074219"/>
      <use xlink:href="#DejaVuSans-441" x="812.255859"/>
      <use xlink:href="#DejaVuSans-435" x="867.236328"/>
      <use xlink:href="#DejaVuSans-43a" x="928.759766"/>
      <use xlink:href="#DejaVuSans-443" x="989.160156"/>
      <use xlink:href="#DejaVuSans-43d" x="1048.339844"/>
      <use xlink:href="#DejaVuSans-434" x="1113.720703"/>
      <use xlink:href="#DejaVuSans-44b" x="1182.861328"/>
      <use xlink:href="#DejaVuSans-29" x="1261.816406"/>
     </g>
    </g>
    <g id="text_16">
     <!-- 1e6 -->
     <g transform="translate(90 57.48) scale(0.1 -0.1)">
      <defs>
       <path id="DejaVuSans-65" d="M 3597 1894 
L 3597 1613 
L 953 1613 
Q 991 1019 1311 708 
Q 1631 397 2203 397 
Q 2534 397 2845 478 
Q 3156 559 3463 722 
L 3463 178 
Q 3153 47 2828 -22 
Q 2503 -91 2169 -91 
Q 1331 -91 842 396 
Q 353 884 353 1716 
Q 353 2575 817 3079 
Q 1281 3584 2069 3584 
Q 2775 3584 3186 3129 
Q 3597 2675 3597 1894 
z
M 3022 2063 
Q 3016 2534 2758 2815 
Q 2500 3097 2075 3097 
Q 1594 3097 1305 2825 
Q 1016 2553 972 2059 
L 3022 2063 
z
" transform="scale(0.015625)"/>
      </defs>
      <use xlink:href="#DejaVuSans-31"/>
      <use xlink:href="#DejaVuSans-65" x="63.623047"/>
      <use xlink:href="#DejaVuSans-36" x="125.146484"/>
     </g>
    </g>
   </g>
   <g id="line2d_27">
    <path d="M 115.363636 430.817623 
L 127.995991 429.899251 
L 133.069225 429.538132 
L 135.605842 429.41521 
L 140.679077 428.941752 
L 145.752312 428.690756 
L 150.825546 428.265398 
L 158.435398 427.57422 
L 160.972015 427.696069 
L 163.508633 427.289745 
L 168.581867 426.829153 
L 171.118485 426.591066 
L 173.655102 426.552323 
L 176.191719 426.242544 
L 178.728336 426.447159 
L 181.264954 425.915228 
L 183.801571 426.058773 
L 186.338188 425.551863 
L 188.874806 425.691578 
L 191.411423 425.552138 
L 193.94804 424.869193 
L 196.484658 425.29476 
L 199.021275 424.676633 
L 206.631127 424.054408 
L 209.167744 424.411708 
L 211.704361 423.605354 
L 214.240979 423.699623 
L 216.777596 423.530808 
L 219.314213 423.210626 
L 221.850831 423.185438 
L 224.387448 423.046094 
L 226.924065 422.504875 
L 231.9973 422.311238 
L 234.533917 421.949789 
L 237.070534 421.838781 
L 239.607152 421.45372 
L 242.143769 422.138643 
L 244.680386 422.010594 
L 247.217004 421.150546 
L 252.290238 420.950677 
L 254.826855 421.214868 
L 257.363473 420.646977 
L 259.90009 420.729127 
L 264.973325 419.76519 
L 267.509942 419.693414 
L 270.046559 419.941054 
L 272.583176 418.595536 
L 275.119794 419.264385 
L 277.656411 419.397866 
L 280.193028 418.842463 
L 282.729646 418.965295 
L 285.266263 418.651166 
L 287.80288 417.986511 
L 292.876115 418.067305 
L 295.412732 418.34379 
L 297.949349 417.248676 
L 300.485967 418.152098 
L 303.022584 417.952323 
L 305.559201 416.29085 
L 310.632436 416.996504 
L 313.169053 416.080775 
L 315.705671 417.095519 
L 318.242288 416.072485 
L 320.778905 415.888579 
L 323.315522 415.330752 
L 325.85214 416.156968 
L 328.388757 415.057172 
L 330.925374 414.772672 
L 333.461992 414.752956 
L 335.998609 415.006755 
L 338.535226 414.380325 
L 341.071844 414.613104 
L 343.608461 413.850903 
L 346.145078 414.106879 
L 348.681695 413.798942 
L 351.218313 413.872565 
L 353.75493 413.52417 
L 356.291547 413.901237 
L 358.828165 413.187031 
L 361.364782 412.982997 
L 366.438017 411.940437 
L 371.511251 411.828758 
L 374.047868 411.317617 
L 376.584486 411.555226 
L 384.194338 410.378753 
L 386.730955 410.647626 
L 389.267572 410.041924 
L 391.80419 410.788695 
L 394.340807 410.418125 
L 396.877424 410.187219 
L 399.414041 410.87289 
L 401.950659 409.657685 
L 404.487276 410.120868 
L 409.560511 409.05667 
L 412.097128 409.51782 
L 414.633745 409.120946 
L 419.70698 408.043953 
L 422.243597 408.811229 
L 424.780214 409.384129 
L 427.316832 408.863462 
L 429.853449 407.700826 
L 432.390066 408.321997 
L 434.926684 407.51661 
L 437.463301 407.017189 
L 442.536535 407.030554 
L 445.073153 407.033878 
L 447.60977 406.672513 
L 450.146387 406.84627 
L 452.683005 406.484741 
L 455.219622 406.320595 
L 457.756239 405.71295 
L 460.292857 405.398524 
L 462.829474 405.394859 
L 465.366091 405.137114 
L 467.902708 405.193735 
L 470.439326 405.428342 
L 475.51256 404.560683 
L 478.049178 404.032928 
L 480.585795 403.68838 
L 483.122412 403.623522 
L 488.195647 404.894878 
L 490.732264 403.656793 
L 493.268881 404.652953 
L 495.805499 404.994936 
L 498.342116 402.709251 
L 500.878733 403.737488 
L 503.415351 402.378201 
L 505.951968 402.110666 
L 508.488585 403.291399 
L 511.025203 401.967841 
L 513.56182 401.621254 
L 518.635054 402.304945 
L 521.171672 401.017554 
L 523.708289 401.463916 
L 528.781524 400.659739 
L 531.318141 401.092549 
L 533.854758 399.663148 
L 536.391376 399.567861 
L 538.927993 400.101507 
L 541.46461 399.251334 
L 544.001227 400.123532 
L 546.537845 399.296045 
L 549.074462 399.750372 
L 551.611079 400.025253 
L 554.147697 399.36338 
L 556.684314 398.542649 
L 559.220931 398.339159 
L 561.757548 397.983557 
L 564.294166 397.453413 
L 566.830783 398.378503 
L 569.3674 397.973381 
L 571.904018 396.791233 
L 574.440635 397.578855 
L 576.977252 397.073336 
L 579.51387 397.000938 
L 582.050487 396.552235 
L 584.587104 396.818516 
L 587.123721 397.232594 
L 589.660339 396.953324 
L 592.196956 396.21117 
L 594.733573 395.915543 
L 597.270191 396.520224 
L 599.806808 395.865559 
L 602.343425 395.99226 
L 604.880043 395.35013 
L 607.41666 395.068045 
L 609.953277 394.418898 
L 612.489894 394.803686 
L 615.026512 394.045404 
L 617.563129 394.219825 
L 620.099746 394.161818 
L 622.636364 393.541382 
L 622.636364 393.541382 
" clip-path="url(#p925e71a150)" style="fill: none; stroke: #ff0000; stroke-width: 1.5; stroke-linecap: square"/>
   </g>
   <g id="line2d_28">
    <path d="M 115.363636 430.92 
L 125.459373 424.389426 
L 127.995991 422.67681 
L 130.532608 421.148756 
L 135.605842 417.533531 
L 138.14246 416.16963 
L 140.679077 414.2572 
L 143.215694 412.906985 
L 145.752312 410.642828 
L 148.288929 408.938882 
L 150.825546 407.731709 
L 155.898781 404.628184 
L 158.435398 402.295877 
L 160.972015 400.857567 
L 163.508633 399.036742 
L 166.04525 397.587316 
L 168.581867 395.33926 
L 171.118485 393.495852 
L 173.655102 391.995065 
L 176.191719 391.213892 
L 178.728336 388.498503 
L 181.264954 387.492302 
L 183.801571 385.78632 
L 186.338188 384.419462 
L 191.411423 379.671583 
L 193.94804 380.174826 
L 196.484658 376.13341 
L 199.021275 374.500685 
L 201.557892 371.512359 
L 204.094509 373.389898 
L 206.631127 368.996394 
L 209.167744 367.503896 
L 211.704361 365.238993 
L 214.240979 364.264107 
L 216.777596 362.735 
L 219.314213 360.369516 
L 221.850831 359.356815 
L 224.387448 357.302283 
L 226.924065 355.514807 
L 229.460682 354.189999 
L 231.9973 351.128177 
L 234.533917 350.920693 
L 237.070534 349.419132 
L 239.607152 346.783164 
L 242.143769 345.821169 
L 244.680386 345.031837 
L 247.217004 342.414599 
L 249.753621 343.32246 
L 252.290238 339.105843 
L 254.826855 340.019516 
L 257.363473 335.11075 
L 259.90009 336.472533 
L 262.436707 331.35983 
L 264.973325 325.689596 
L 270.046559 329.88071 
L 272.583176 325.037874 
L 275.119794 322.721916 
L 277.656411 324.419116 
L 280.193028 319.889015 
L 282.729646 321.459248 
L 285.266263 320.147866 
L 287.80288 313.890397 
L 290.339498 317.259057 
L 292.876115 311.569118 
L 295.412732 314.029094 
L 297.949349 309.133215 
L 300.485967 310.031066 
L 303.022584 306.45536 
L 305.559201 307.142122 
L 308.095819 304.761701 
L 313.169053 301.788252 
L 315.705671 299.864646 
L 318.242288 298.462622 
L 320.778905 293.087863 
L 323.315522 295.200677 
L 325.85214 293.724114 
L 328.388757 281.315539 
L 330.925374 289.203586 
L 333.461992 284.299442 
L 335.998609 287.662419 
L 338.535226 284.087744 
L 341.071844 284.170768 
L 343.608461 278.290846 
L 346.145078 276.693255 
L 348.681695 279.21785 
L 351.218313 275.739205 
L 353.75493 267.545977 
L 356.291547 269.714702 
L 358.828165 270.145287 
L 361.364782 264.420852 
L 363.901399 263.478331 
L 366.438017 254.472229 
L 368.974634 262.92894 
L 371.511251 254.826592 
L 374.047868 251.50428 
L 376.584486 249.826805 
L 379.121103 223.218728 
L 381.65772 248.477704 
L 384.194338 254.723785 
L 386.730955 239.459608 
L 389.267572 236.346912 
L 391.80419 239.784188 
L 394.340807 241.927948 
L 396.877424 247.199056 
L 399.414041 244.239426 
L 401.950659 237.629461 
L 404.487276 238.640711 
L 407.023893 237.397136 
L 409.560511 235.916783 
L 412.097128 235.370034 
L 414.633745 229.697675 
L 417.170362 217.911344 
L 419.70698 223.420662 
L 422.243597 220.474612 
L 424.780214 223.350913 
L 427.316832 220.453282 
L 429.853449 214.622833 
L 432.390066 219.947374 
L 434.926684 215.318786 
L 437.463301 220.461193 
L 439.999918 214.77363 
L 442.536535 217.569659 
L 445.073153 198.754091 
L 447.60977 214.060511 
L 450.146387 202.418078 
L 452.683005 207.759882 
L 455.219622 196.789079 
L 457.756239 200.830351 
L 460.292857 203.986715 
L 462.829474 203.846824 
L 465.366091 201.252141 
L 467.902708 198.907341 
L 470.439326 198.158435 
L 472.975943 188.819295 
L 475.51256 192.127409 
L 478.049178 178.144385 
L 480.585795 189.398442 
L 483.122412 179.170177 
L 485.65903 184.458588 
L 488.195647 174.811703 
L 490.732264 184.934137 
L 493.268881 178.149505 
L 495.805499 182.305442 
L 498.342116 167.777122 
L 500.878733 176.004277 
L 503.415351 165.148787 
L 505.951968 171.616875 
L 508.488585 173.682537 
L 511.025203 160.854972 
L 513.56182 163.227724 
L 516.098437 159.275702 
L 518.635054 168.271961 
L 521.171672 161.582954 
L 523.708289 161.531549 
L 526.244906 156.740756 
L 528.781524 152.403609 
L 531.318141 138.82203 
L 533.854758 155.016396 
L 536.391376 141.475061 
L 538.927993 150.285013 
L 541.46461 131.916793 
L 544.001227 151.619932 
L 546.537845 133.089457 
L 549.074462 143.966911 
L 551.611079 144.411395 
L 554.147697 137.509212 
L 556.684314 140.264053 
L 559.220931 122.191085 
L 561.757548 133.554244 
L 564.294166 118.218397 
L 566.830783 130.531213 
L 569.3674 128.229869 
L 571.904018 116.77615 
L 574.440635 127.29453 
L 576.977252 125.073218 
L 579.51387 107.720548 
L 582.050487 114.857122 
L 584.587104 117.762492 
L 587.123721 112.276965 
L 589.660339 113.875756 
L 592.196956 116.665128 
L 594.733573 111.63292 
L 597.270191 111.056386 
L 599.806808 89.244335 
L 602.343425 96.551043 
L 604.880043 105.25114 
L 607.41666 99.256753 
L 609.953277 94.235018 
L 612.489894 94.714195 
L 615.026512 92.484336 
L 617.563129 101.271482 
L 620.099746 78.12 
L 622.636364 86.230117 
L 622.636364 86.230117 
" clip-path="url(#p925e71a150)" style="fill: none; stroke: #0000ff; stroke-width: 1.5; stroke-linecap: square"/>
   </g>
   <g id="patch_3">
    <path d="M 90 448.56 
L 90 60.48 
" style="fill: none; stroke: #000000; stroke-width: 0.8; stroke-linejoin: miter; stroke-linecap: square"/>
   </g>
   <g id="patch_4">
    <path d="M 648 448.56 
L 648 60.48 
" style="fill: none; stroke: #000000; stroke-width: 0.8; stroke-linejoin: miter; stroke-linecap: square"/>
   </g>
   <g id="patch_5">
    <path d="M 90 448.56 
L 648 448.56 
" style="fill: none; stroke: #000000; stroke-width: 0.8; stroke-linejoin: miter; stroke-linecap: square"/>
   </g>
   <g id="patch_6">
    <path d="M 90 60.48 
L 648 60.48 
" style="fill: none; stroke: #000000; stroke-width: 0.8; stroke-linejoin: miter; stroke-linecap: square"/>
   </g>
   <g id="text_17">
    <!-- График зависимости скорости работы каждыого метода от размера -->
    <g transform="translate(150.760312 54.48) scale(0.12 -0.12)">
     <defs>
      <path id="DejaVuSans-413" d="M 628 0 
L 628 4666 
L 3531 4666 
L 3531 4134 
L 1259 4134 
L 1259 0 
L 628 0 
z
" transform="scale(0.015625)"/>
      <path id="DejaVuSans-444" d="M 947 1747 
Q 947 1013 1173 702 
Q 1400 391 1784 391 
Q 2091 391 2447 916 
L 2447 2578 
Q 2091 3103 1784 3103 
Q 1400 3103 1173 2792 
Q 947 2481 947 1747 
z
M 2447 -1331 
L 2447 447 
Q 2269 153 2064 31 
Q 1859 -91 1600 -91 
Q 1078 -91 714 392 
Q 350 875 350 1734 
Q 350 2594 714 3089 
Q 1078 3584 1600 3584 
Q 1859 3584 2064 3465 
Q 2269 3347 2447 3053 
L 2447 4666 
L 3025 4666 
L 3025 3053 
Q 3203 3347 3408 3465 
Q 3613 3584 3872 3584 
Q 4394 3584 4758 3089 
Q 5122 2594 5122 1734 
Q 5122 875 4758 392 
Q 4394 -91 3872 -91 
Q 3613 -91 3408 31 
Q 3203 153 3025 447 
L 3025 -1331 
L 2447 -1331 
z
M 4525 1747 
Q 4525 2481 4298 2792 
Q 4072 3103 3688 3103 
Q 3381 3103 3025 2578 
L 3025 916 
Q 3381 391 3688 391 
Q 4072 391 4298 702 
Q 4525 1013 4525 1747 
z
" transform="scale(0.015625)"/>
      <path id="DejaVuSans-438" d="M 3578 3500 
L 3578 0 
L 3006 0 
L 3006 2809 
L 1319 0 
L 581 0 
L 581 3500 
L 1153 3500 
L 1153 697 
L 2838 3500 
L 3578 3500 
z
" transform="scale(0.015625)"/>
      <path id="DejaVuSans-432" d="M 1156 1613 
L 1156 459 
L 1975 459 
Q 2369 459 2575 607 
Q 2781 756 2781 1038 
Q 2781 1319 2575 1466 
Q 2369 1613 1975 1613 
L 1156 1613 
z
M 1156 3041 
L 1156 2072 
L 1913 2072 
Q 2238 2072 2444 2201 
Q 2650 2331 2650 2563 
Q 2650 2794 2444 2917 
Q 2238 3041 1913 3041 
L 1156 3041 
z
M 581 3500 
L 1950 3500 
Q 2566 3500 2897 3275 
Q 3228 3050 3228 2634 
Q 3228 2313 3059 2123 
Q 2891 1934 2559 1888 
Q 2956 1813 3175 1575 
Q 3394 1338 3394 981 
Q 3394 513 3033 256 
Q 2672 0 2003 0 
L 581 0 
L 581 3500 
z
" transform="scale(0.015625)"/>
      <path id="DejaVuSans-431" d="M 1991 3584 
Q 2741 3584 3169 3096 
Q 3597 2609 3597 1747 
Q 3597 888 3169 398 
Q 2741 -91 1991 -91 
Q 1238 -91 822 384 
Q 406 859 384 1747 
L 366 2463 
Q 350 2834 350 2963 
Q 350 3463 531 3831 
Q 816 4409 1308 4659 
Q 1800 4909 2625 4916 
Q 3006 4919 3175 4972 
L 3334 4516 
Q 3181 4453 3041 4450 
L 2259 4397 
Q 1866 4369 1628 4231 
Q 1006 3866 947 3388 
L 925 3213 
Q 1331 3584 1991 3584 
z
M 1991 3097 
Q 1528 3097 1259 2736 
Q 991 2375 991 1747 
Q 991 1119 1258 758 
Q 1525 397 1991 397 
Q 2450 397 2719 759 
Q 2988 1122 2988 1747 
Q 2988 2369 2719 2733 
Q 2450 3097 1991 3097 
z
" transform="scale(0.015625)"/>
      <path id="DejaVuSans-436" d="M 2597 3500 
L 3169 3500 
L 3169 1856 
L 4697 3500 
L 5366 3500 
L 4109 2153 
L 5547 0 
L 4931 0 
L 3753 1769 
L 3169 1141 
L 3169 0 
L 2597 0 
L 2597 1141 
L 2013 1769 
L 834 0 
L 219 0 
L 1656 2153 
L 400 3500 
L 1069 3500 
L 2597 1856 
L 2597 3500 
z
" transform="scale(0.015625)"/>
      <path id="DejaVuSans-433" d="M 581 0 
L 581 3500 
L 3050 3500 
L 3050 3041 
L 1159 3041 
L 1159 0 
L 581 0 
z
" transform="scale(0.015625)"/>
     </defs>
     <use xlink:href="#DejaVuSans-413"/>
     <use xlink:href="#DejaVuSans-440" x="60.986328"/>
     <use xlink:href="#DejaVuSans-430" x="124.462891"/>
     <use xlink:href="#DejaVuSans-444" x="185.742188"/>
     <use xlink:href="#DejaVuSans-438" x="271.240234"/>
     <use xlink:href="#DejaVuSans-43a" x="336.230469"/>
     <use xlink:href="#DejaVuSans-20" x="396.630859"/>
     <use xlink:href="#DejaVuSans-437" x="428.417969"/>
     <use xlink:href="#DejaVuSans-430" x="481.591797"/>
     <use xlink:href="#DejaVuSans-432" x="542.871094"/>
     <use xlink:href="#DejaVuSans-438" x="601.806641"/>
     <use xlink:href="#DejaVuSans-441" x="666.796875"/>
     <use xlink:href="#DejaVuSans-438" x="721.777344"/>
     <use xlink:href="#DejaVuSans-43c" x="786.767578"/>
     <use xlink:href="#DejaVuSans-43e" x="862.207031"/>
     <use xlink:href="#DejaVuSans-441" x="923.388672"/>
     <use xlink:href="#DejaVuSans-442" x="978.369141"/>
     <use xlink:href="#DejaVuSans-438" x="1036.621094"/>
     <use xlink:href="#DejaVuSans-20" x="1101.611328"/>
     <use xlink:href="#DejaVuSans-441" x="1133.398438"/>
     <use xlink:href="#DejaVuSans-43a" x="1188.378906"/>
     <use xlink:href="#DejaVuSans-43e" x="1248.779297"/>
     <use xlink:href="#DejaVuSans-440" x="1309.960938"/>
     <use xlink:href="#DejaVuSans-43e" x="1373.4375"/>
     <use xlink:href="#DejaVuSans-441" x="1434.619141"/>
     <use xlink:href="#DejaVuSans-442" x="1489.599609"/>
     <use xlink:href="#DejaVuSans-438" x="1547.851562"/>
     <use xlink:href="#DejaVuSans-20" x="1612.841797"/>
     <use xlink:href="#DejaVuSans-440" x="1644.628906"/>
     <use xlink:href="#DejaVuSans-430" x="1708.105469"/>
     <use xlink:href="#DejaVuSans-431" x="1769.384766"/>
     <use xlink:href="#DejaVuSans-43e" x="1831.054688"/>
     <use xlink:href="#DejaVuSans-442" x="1892.236328"/>
     <use xlink:href="#DejaVuSans-44b" x="1950.488281"/>
     <use xlink:href="#DejaVuSans-20" x="2029.443359"/>
     <use xlink:href="#DejaVuSans-43a" x="2061.230469"/>
     <use xlink:href="#DejaVuSans-430" x="2121.630859"/>
     <use xlink:href="#DejaVuSans-436" x="2182.910156"/>
     <use xlink:href="#DejaVuSans-434" x="2272.998047"/>
     <use xlink:href="#DejaVuSans-44b" x="2342.138672"/>
     <use xlink:href="#DejaVuSans-43e" x="2421.09375"/>
     <use xlink:href="#DejaVuSans-433" x="2482.275391"/>
     <use xlink:href="#DejaVuSans-43e" x="2534.814453"/>
     <use xlink:href="#DejaVuSans-20" x="2595.996094"/>
     <use xlink:href="#DejaVuSans-43c" x="2627.783203"/>
     <use xlink:href="#DejaVuSans-435" x="2703.222656"/>
     <use xlink:href="#DejaVuSans-442" x="2764.746094"/>
     <use xlink:href="#DejaVuSans-43e" x="2822.998047"/>
     <use xlink:href="#DejaVuSans-434" x="2884.179688"/>
     <use xlink:href="#DejaVuSans-430" x="2953.320312"/>
     <use xlink:href="#DejaVuSans-20" x="3014.599609"/>
     <use xlink:href="#DejaVuSans-43e" x="3046.386719"/>
     <use xlink:href="#DejaVuSans-442" x="3107.568359"/>
     <use xlink:href="#DejaVuSans-20" x="3165.820312"/>
     <use xlink:href="#DejaVuSans-440" x="3197.607422"/>
     <use xlink:href="#DejaVuSans-430" x="3261.083984"/>
     <use xlink:href="#DejaVuSans-437" x="3322.363281"/>
     <use xlink:href="#DejaVuSans-43c" x="3375.537109"/>
     <use xlink:href="#DejaVuSans-435" x="3450.976562"/>
     <use xlink:href="#DejaVuSans-440" x="3512.5"/>
     <use xlink:href="#DejaVuSans-430" x="3575.976562"/>
    </g>
   </g>
   <g id="legend_1">
    <g id="patch_7">
     <path d="M 97 97.83625 
L 312.359375 97.83625 
Q 314.359375 97.83625 314.359375 95.83625 
L 314.359375 67.48 
Q 314.359375 65.48 312.359375 65.48 
L 97 65.48 
Q 95 65.48 95 67.48 
L 95 95.83625 
Q 95 97.83625 97 97.83625 
z
" style="fill: #ffffff; opacity: 0.8; stroke: #cccccc; stroke-linejoin: miter"/>
    </g>
    <g id="line2d_29">
     <path d="M 99 73.578438 
L 109 73.578438 
L 119 73.578438 
" style="fill: none; stroke: #ff0000; stroke-width: 1.5; stroke-linecap: square"/>
    </g>
    <g id="text_18">
     <!-- Скорость стека на основе массива -->
     <g transform="translate(127 77.078438) scale(0.1 -0.1)">
      <use xlink:href="#DejaVuSans-421"/>
      <use xlink:href="#DejaVuSans-43a" x="69.824219"/>
      <use xlink:href="#DejaVuSans-43e" x="130.224609"/>
      <use xlink:href="#DejaVuSans-440" x="191.40625"/>
      <use xlink:href="#DejaVuSans-43e" x="254.882812"/>
      <use xlink:href="#DejaVuSans-441" x="316.064453"/>
      <use xlink:href="#DejaVuSans-442" x="371.044922"/>
      <use xlink:href="#DejaVuSans-44c" x="429.296875"/>
      <use xlink:href="#DejaVuSans-20" x="488.232422"/>
      <use xlink:href="#DejaVuSans-441" x="520.019531"/>
      <use xlink:href="#DejaVuSans-442" x="575"/>
      <use xlink:href="#DejaVuSans-435" x="633.251953"/>
      <use xlink:href="#DejaVuSans-43a" x="694.775391"/>
      <use xlink:href="#DejaVuSans-430" x="755.175781"/>
      <use xlink:href="#DejaVuSans-20" x="816.455078"/>
      <use xlink:href="#DejaVuSans-43d" x="848.242188"/>
      <use xlink:href="#DejaVuSans-430" x="913.623047"/>
      <use xlink:href="#DejaVuSans-20" x="974.902344"/>
      <use xlink:href="#DejaVuSans-43e" x="1006.689453"/>
      <use xlink:href="#DejaVuSans-441" x="1067.871094"/>
      <use xlink:href="#DejaVuSans-43d" x="1122.851562"/>
      <use xlink:href="#DejaVuSans-43e" x="1188.232422"/>
      <use xlink:href="#DejaVuSans-432" x="1249.414062"/>
      <use xlink:href="#DejaVuSans-435" x="1308.349609"/>
      <use xlink:href="#DejaVuSans-20" x="1369.873047"/>
      <use xlink:href="#DejaVuSans-43c" x="1401.660156"/>
      <use xlink:href="#DejaVuSans-430" x="1477.099609"/>
      <use xlink:href="#DejaVuSans-441" x="1538.378906"/>
      <use xlink:href="#DejaVuSans-441" x="1593.359375"/>
      <use xlink:href="#DejaVuSans-438" x="1648.339844"/>
      <use xlink:href="#DejaVuSans-432" x="1713.330078"/>
      <use xlink:href="#DejaVuSans-430" x="1772.265625"/>
     </g>
    </g>
    <g id="line2d_30">
     <path d="M 99 88.256563 
L 109 88.256563 
L 119 88.256563 
" style="fill: none; stroke: #0000ff; stroke-width: 1.5; stroke-linecap: square"/>
    </g>
    <g id="text_19">
     <!-- Скорость стека на основе списка -->
     <g transform="translate(127 91.756563) scale(0.1 -0.1)">
      <defs>
       <path id="DejaVuSans-43f" d="M 3603 3500 
L 3603 0 
L 3025 0 
L 3025 3041 
L 1159 3041 
L 1159 0 
L 581 0 
L 581 3500 
L 3603 3500 
z
" transform="scale(0.015625)"/>
      </defs>
      <use xlink:href="#DejaVuSans-421"/>
      <use xlink:href="#DejaVuSans-43a" x="69.824219"/>
      <use xlink:href="#DejaVuSans-43e" x="130.224609"/>
      <use xlink:href="#DejaVuSans-440" x="191.40625"/>
      <use xlink:href="#DejaVuSans-43e" x="254.882812"/>
      <use xlink:href="#DejaVuSans-441" x="316.064453"/>
      <use xlink:href="#DejaVuSans-442" x="371.044922"/>
      <use xlink:href="#DejaVuSans-44c" x="429.296875"/>
      <use xlink:href="#DejaVuSans-20" x="488.232422"/>
      <use xlink:href="#DejaVuSans-441" x="520.019531"/>
      <use xlink:href="#DejaVuSans-442" x="575"/>
      <use xlink:href="#DejaVuSans-435" x="633.251953"/>
      <use xlink:href="#DejaVuSans-43a" x="694.775391"/>
      <use xlink:href="#DejaVuSans-430" x="755.175781"/>
      <use xlink:href="#DejaVuSans-20" x="816.455078"/>
      <use xlink:href="#DejaVuSans-43d" x="848.242188"/>
      <use xlink:href="#DejaVuSans-430" x="913.623047"/>
      <use xlink:href="#DejaVuSans-20" x="974.902344"/>
      <use xlink:href="#DejaVuSans-43e" x="1006.689453"/>
      <use xlink:href="#DejaVuSans-441" x="1067.871094"/>
      <use xlink:href="#DejaVuSans-43d" x="1122.851562"/>
      <use xlink:href="#DejaVuSans-43e" x="1188.232422"/>
      <use xlink:href="#DejaVuSans-432" x="1249.414062"/>
      <use xlink:href="#DejaVuSans-435" x="1308.349609"/>
      <use xlink:href="#DejaVuSans-20" x="1369.873047"/>
      <use xlink:href="#DejaVuSans-441" x="1401.660156"/>
      <use xlink:href="#DejaVuSans-43f" x="1456.640625"/>
      <use xlink:href="#DejaVuSans-438" x="1522.021484"/>
      <use xlink:href="#DejaVuSans-441" x="1587.011719"/>
      <use xlink:href="#DejaVuSans-43a" x="1641.992188"/>
      <use xlink:href="#DejaVuSans-430" x="1702.392578"/>
     </g>
    </g>
   </g>
  </g>
 </g>
 <defs>
  <clipPath id="p925e71a150">
   <rect x="90" y="60.48" width="558" height="388.08"/>
  </clipPath>
 </defs>
</svg>
